<!--?xml version="1.0" standalone="no"?-->
              <svg id="sw-js-blob-svg" viewBox="0 0 100 100" xmlns="http://www.w3.org/2000/svg" version="1.1">
                    <defs> 
                        <linearGradient id="sw-gradient" x1="0" x2="1" y1="1" y2="0">
                            <stop id="stop1" stop-color="rgba(248, 117, 55, 1)" offset="0%"></stop>
                            <stop id="stop2" stop-color="rgba(251, 168, 31, 1)" offset="100%"></stop>
                        </linearGradient>
                    </defs>
                <path fill="url(#sw-gradient)" d="M25.1,-28.6C33,-28.9,40.1,-22.1,42.9,-13.9C45.8,-5.6,44.2,4.1,40.5,12.4C36.7,20.6,30.7,27.3,23.6,28.8C16.4,30.4,8.2,26.8,2.2,23.8C-3.7,20.7,-7.5,18.1,-10.8,15.3C-14.1,12.5,-16.9,9.4,-19.7,5.3C-22.6,1.2,-25.5,-4,-23.8,-7.3C-22.1,-10.6,-15.9,-11.9,-11.1,-12.7C-6.4,-13.5,-3.2,-13.8,2.7,-17.5C8.6,-21.3,17.2,-28.4,25.1,-28.6Z" width="100%" height="100%" transform="translate(50 50)" stroke-width="0" style="transition: all 0.3s ease 0s;" stroke="url(#sw-gradient)"></path>
              </svg>