<svg xmlns="http://www.w3.org/2000/svg" viewBox="0 0 1440 320"><path fill="#ffa700" fill-opacity="1" d="M0,32L26.7,32C53.3,32,107,32,160,37.3C213.3,43,267,53,320,74.7C373.3,96,427,128,480,122.7C533.3,117,587,75,640,48C693.3,21,747,11,800,26.7C853.3,43,907,85,960,101.3C1013.3,117,1067,107,1120,101.3C1173.3,96,1227,96,1280,90.7C1333.3,85,1387,75,1413,69.3L1440,64L1440,320L1413.3,320C1386.7,320,1333,320,1280,320C1226.7,320,1173,320,1120,320C1066.7,320,1013,320,960,320C906.7,320,853,320,800,320C746.7,320,693,320,640,320C586.7,320,533,320,480,320C426.7,320,373,320,320,320C266.7,320,213,320,160,320C106.7,320,53,320,27,320L0,320Z"></path></svg>